<svg id="SvgjsSvg1006" width="325" height="123" xmlns="http://www.w3.org/2000/svg" version="1.1" xmlns:xlink="http://www.w3.org/1999/xlink" xmlns:svgjs="http://svgjs.com/svgjs" viewBox="0 0 325.25 123"><defs id="SvgjsDefs1007"></defs><g id="SvgjsG1009" transform="rotate(0 43.5 60)"><svg height="120" viewBox="0 0 65.61710357666016 90.0260238647461" xmlns="http://www.w3.org/2000/svg" version="1.1" xmlns:xlink="http://www.w3.org/1999/xlink" xmlns:svgjs="http://svgjs.com/svgjs" preserveAspectRatio="none" width="87" x="0" y="0"><g><svg data-color="1" xmlns="http://www.w3.org/2000/svg" xmlns:xlink="http://www.w3.org/1999/xlink" version="1.1" x="0px" y="0px" viewBox="17.219282150268555 5 65.61710357666016 90.0260238647461" enable-background="new 0 0 100 100" xml:space="preserve" width="65.61710357666016" height="90.0260238647461" fill="#ab231a"><path d="M58.1,14.3C53.3,11.2,50,5,50,5H50c0,0-3.3,6.2-8.1,9.3C37,17.3,7.5,42.2,20.5,59.4c11.5,15.4,22,7.4,28.8,6.8  c0.2,10.1,1.8,25.4,2.2,28.4c0,0.3,0.3,0.5,0.6,0.4l1.3-0.1c0.3,0,0.5-0.4,0.4-0.7c-2.3-7.3-3-26.1-3-27.9  c6.8,0.9,17.6,8.2,28.8-6.8C92.5,42.2,63,17.3,58.1,14.3z M75.2,54.2c-0.1,0.1-0.2,0.2-0.4,0.3c-0.2,0.1-0.4,0.3-0.7,0.5  c-0.3,0.2-0.6,0.4-0.9,0.6c-0.7,0.4-1.5,0.8-2.4,1.1c-0.9,0.3-1.9,0.6-2.9,0.8c-2,0.4-4.1,0.6-5.6,0.6c-0.8,0-1.4-0.1-1.9-0.3  c-0.2-0.1-0.4-0.2-0.5-0.3c-0.4,0.3-0.7,0.6-1.1,0.9c-1.4,1.2-2.8,2.2-4,2.9c-0.3,0.2-0.6,0.4-0.9,0.5c-0.3,0.2-0.6,0.3-0.8,0.5  c-0.5,0.3-1,0.5-1.4,0.7c-0.4,0.2-0.7,0.3-0.9,0.4c-0.1,0-0.2,0.1-0.2,0.1c0,0.4,0,0.7,0,1c0,0.7,0,1.2,0.1,1.5h-1.2  c0-0.4,0-0.9,0-1.5c0-0.3,0-0.7,0-1.1c-0.2-0.1-0.5-0.2-0.8-0.3c-0.4-0.2-0.9-0.4-1.4-0.7c-0.3-0.1-0.5-0.3-0.8-0.5  c-0.3-0.2-0.6-0.3-0.9-0.5c-1.2-0.8-2.6-1.8-4-2.9c-0.1-0.1-0.1-0.1-0.2-0.2c-0.2,0.1-0.3,0.2-0.6,0.3c-0.5,0.2-1.1,0.3-1.9,0.3  c-1.6,0.1-3.6-0.1-5.6-0.6c-1-0.2-2-0.5-2.9-0.8c-0.9-0.3-1.7-0.7-2.4-1.1c-0.3-0.2-0.6-0.4-0.9-0.6c-0.3-0.2-0.5-0.3-0.7-0.5  c-0.2-0.1-0.3-0.3-0.4-0.3c-0.1-0.1-0.1-0.1-0.1-0.1s0,0,0.1,0.1c0.1,0.1,0.2,0.2,0.4,0.3c0.2,0.1,0.4,0.3,0.7,0.5  c0.3,0.2,0.6,0.3,0.9,0.5c0.7,0.4,1.5,0.7,2.4,1c0.9,0.3,1.9,0.6,2.9,0.7c2,0.4,4,0.5,5.6,0.4c0.8-0.1,1.4-0.2,1.7-0.3  c0.2-0.1,0.3-0.2,0.3-0.2c0,0,0,0,0,0c-0.5-0.4-1-0.9-1.5-1.3c-0.7-0.6-1.4-1.3-2.1-2c-2.7-2.7-5.2-5.7-7-8  c-1.8-2.3-2.9-3.9-2.9-3.9s1.1,1.6,3,3.8c1.8,2.2,4.4,5.1,7.2,7.8c0.7,0.7,1.4,1.3,2.1,1.9c0.7,0.6,1.4,1.2,2.1,1.8  c1.4,1.1,2.8,2.1,4,2.8c0.3,0.2,0.6,0.3,0.9,0.5c0.3,0.2,0.6,0.3,0.8,0.4c0.5,0.3,1,0.5,1.4,0.6c0.2,0.1,0.4,0.1,0.5,0.2  c0-1.1,0-2.3,0-3.7c0-4,0.1-9.2,0.2-14.6c-0.2,0-0.4-0.1-0.6-0.2c-0.1,0-0.3-0.1-0.5-0.1c-0.1,0-0.2-0.1-0.3-0.1  c-0.1,0-0.2-0.1-0.3-0.1c-0.4-0.2-0.8-0.4-1.3-0.6c-0.4-0.2-0.9-0.5-1.4-0.8c-0.5-0.3-1-0.7-1.5-1c-0.5-0.4-1-0.8-1.5-1.2  c-0.5-0.5-1-0.9-1.4-1.4c-0.5-0.5-0.9-0.9-1.4-1.4c-0.2-0.2-0.4-0.5-0.6-0.7c-0.2-0.2-0.4-0.5-0.6-0.7c-0.8-1-1.5-1.9-2-2.7  c-1.1-1.6-1.8-2.8-1.8-2.8s0.7,1.1,1.9,2.7c0.6,0.8,1.3,1.7,2.1,2.7c0.2,0.2,0.4,0.5,0.6,0.7c0.2,0.2,0.4,0.5,0.7,0.7  c0.4,0.5,0.9,0.9,1.4,1.4c0.5,0.5,1,0.9,1.5,1.3c0.5,0.4,1,0.8,1.5,1.2c0.5,0.3,1,0.7,1.5,1c0.5,0.3,1,0.5,1.4,0.8  c0.5,0.2,0.9,0.4,1.2,0.5c0.1,0,0.2,0.1,0.3,0.1c0.1,0,0.2,0,0.3,0.1c0.2,0,0.3,0.1,0.5,0.1c0.2,0.1,0.4,0.1,0.5,0.1  c0-0.7,0-1.4,0-2.2c0.1-4.4,0.2-8.8,0.2-12.7c0,0-0.2-0.1-0.5-0.2c-0.2-0.1-0.3-0.1-0.5-0.2c-0.2-0.1-0.4-0.2-0.7-0.4  c-0.2-0.2-0.5-0.3-0.7-0.5c-0.2-0.2-0.5-0.4-0.7-0.6c-0.2-0.2-0.5-0.5-0.7-0.7c-0.2-0.3-0.5-0.5-0.7-0.8c-1.9-2.2-3.2-4.8-3.2-4.8  s0.4,0.6,1,1.5c0.3,0.4,0.7,0.9,1.1,1.5c0.2,0.3,0.4,0.5,0.7,0.8c0.2,0.3,0.5,0.5,0.7,0.8c0.2,0.3,0.5,0.5,0.7,0.8  c0.2,0.3,0.5,0.5,0.8,0.7c0.2,0.2,0.5,0.4,0.8,0.6c0.2,0.2,0.5,0.3,0.7,0.5c0.2,0.1,0.4,0.2,0.6,0.3c0.2,0.1,0.4,0.2,0.5,0.2  c0.1,0,0.3,0.1,0.3,0.1c0.1-6.9,0.2-11.9,0.2-11.9s0.1,9,0.1,19.3c0.1,0,0.2,0,0.3-0.1c0.2-0.1,0.5-0.1,0.8-0.3  c0.3-0.1,0.6-0.3,0.9-0.5c1.4-0.7,2.9-2.1,4.4-3.6c1.4-1.5,2.7-3.2,3.6-4.5c0.9-1.3,1.4-2.2,1.4-2.2s-0.5,0.9-1.4,2.2  c-0.9,1.3-2.1,3-3.5,4.6c-1.4,1.6-2.9,3-4.3,3.9c-0.3,0.2-0.7,0.4-1,0.5c-0.3,0.1-0.6,0.2-0.8,0.3c-0.2,0.1-0.4,0.1-0.5,0.1  c0,1.7,0,3.5,0,5.3c0,1.7,0,3.4,0,5c0.1,0,0.3-0.1,0.6-0.1c0.3-0.1,0.6-0.2,1-0.3c0.4-0.1,0.8-0.3,1.3-0.4c0.5-0.2,1-0.4,1.5-0.6  c0.5-0.2,1.1-0.5,1.6-0.8c0.3-0.2,0.6-0.3,0.8-0.5c0.3-0.2,0.6-0.3,0.8-0.5c0.6-0.3,1.1-0.7,1.7-1.1c0.6-0.4,1.1-0.8,1.6-1.2  c0.5-0.4,1-0.9,1.5-1.3c0.5-0.4,0.9-0.9,1.3-1.3c0.4-0.4,0.8-0.8,1.1-1.2c0.3-0.4,0.7-0.7,0.9-1.1c0.2-0.3,0.5-0.6,0.6-0.9  c0.4-0.5,0.6-0.7,0.6-0.7s-0.2,0.3-0.5,0.8c-0.2,0.2-0.4,0.5-0.6,0.9c-0.2,0.3-0.5,0.7-0.9,1.1c-0.3,0.4-0.7,0.8-1.1,1.2  c-0.4,0.4-0.8,0.9-1.3,1.3c-0.5,0.4-1,0.9-1.4,1.3c-0.5,0.4-1,0.9-1.6,1.3c-0.6,0.4-1.1,0.8-1.7,1.2c-0.3,0.2-0.6,0.4-0.8,0.5  c-0.3,0.2-0.6,0.3-0.8,0.5c-0.6,0.3-1.1,0.6-1.6,0.9c-0.5,0.2-1,0.5-1.5,0.7c-0.5,0.2-0.9,0.4-1.3,0.5c-0.4,0.1-0.7,0.2-1,0.3  c-0.3,0.1-0.5,0.1-0.7,0.2c0,4.3,0.1,8.4,0.2,11.7c0,1.5,0.1,2.8,0.1,3.9c0,0,0,0,0,0c0.2-0.1,0.5-0.2,0.9-0.3  c0.4-0.2,0.8-0.3,1.4-0.6c0.3-0.1,0.5-0.3,0.8-0.4c0.3-0.2,0.6-0.3,0.9-0.5c1.2-0.7,2.6-1.7,4-2.8c0.7-0.6,1.4-1.1,2.1-1.8  c0.7-0.6,1.4-1.3,2.1-1.9c2.8-2.7,5.3-5.5,7.2-7.8c1.8-2.2,3-3.8,3-3.8s-1.1,1.6-2.9,3.9c-1.8,2.3-4.3,5.2-7,8  c-0.7,0.7-1.4,1.4-2.1,2c-0.2,0.2-0.4,0.4-0.6,0.5c0.1,0,0.2,0.1,0.3,0.2c0.4,0.2,1,0.3,1.7,0.3c1.5,0.1,3.6,0,5.6-0.4  c1-0.2,2-0.4,2.9-0.7c0.9-0.3,1.7-0.7,2.4-1c0.3-0.2,0.6-0.4,0.9-0.5c0.3-0.2,0.5-0.3,0.7-0.5C74.9,54.4,75.1,54.3,75.2,54.2  c0.1-0.1,0.1-0.1,0.1-0.1S75.3,54.2,75.2,54.2z"></path></svg></g><defs id="SvgjsDefs1008"></defs></svg></g><g id="SvgjsG1011" transform="rotate(0 213.625 45)"><svg xmlns="http://www.w3.org/2000/svg" xmlns:xlink="http://www.w3.org/1999/xlink" width="223.25" viewBox="-0.8600000143051147 17.90999984741211 223.25999450683594 26.580001831054688" overflow="visible" style="overflow: visible;" transform="" version="1.1" xmlns:svgjs="http://svgjs.com/svgjs" preserveAspectRatio="none" height="27" x="102" y="31.5" fill="#000000" stroke="none"><path stroke="none" fill="#adadad" d="M7.59 26.09L7.59 26.09L7.59 21.30L7.59 21.30Q7.59 20.58 6.70 20.65L6.70 20.65L-0.54 21.01L-0.86 20.69L-0.86 18.60L-0.58 18.32L-0.58 18.32Q0.72 18.35 4.28 18.49L4.28 18.49L4.28 18.49Q7.84 18.63 9.79 18.63L9.79 18.63L9.79 18.63Q11.41 18.63 13.16 18.57L13.16 18.57L13.16 18.57Q14.91 18.51 17.22 18.40L17.22 18.40L17.22 18.40Q19.53 18.28 20.58 18.25L20.58 18.25L20.95 18.60L20.95 20.41L20.55 20.72L20.55 20.72Q20.44 20.72 19.04 20.69L19.04 20.69L19.04 20.69Q17.63 20.65 15.83 20.62L15.83 20.62L15.83 20.62Q14.03 20.58 12.96 20.58L12.96 20.58L12.96 20.58Q12.52 20.58 12.36 20.69L12.36 20.69L12.36 20.69Q12.20 20.79 12.20 21.13L12.20 21.13L12.20 26.09L12.20 26.09Q12.20 33.12 12.81 42.87L12.81 42.87L7.63 44.35L7.31 43.91L7.31 43.91Q7.59 34.40 7.59 26.09ZM28.83 42.75L28.83 42.75L25.01 44.16L24.29 43.91L24.29 43.91Q24.54 35.51 24.54 33.36L24.54 33.36L24.54 33.36Q24.54 33.22 24.54 32.94L24.54 32.94L24.54 32.94Q24.54 32.43 24.54 32.18L24.54 32.18L24.54 32.18Q24.54 31.92 24.52 31.48L24.52 31.48L24.52 31.48Q24.50 31.04 24.48 30.81L24.48 30.81L24.48 30.81Q24.45 30.57 24.39 30.23L24.39 30.23L24.39 30.23Q24.33 29.88 24.23 29.71L24.23 29.71L24.23 29.71Q24.13 29.53 24.00 29.35L24.00 29.35L24.00 29.35Q23.87 29.16 23.68 29.08L23.68 29.08L23.68 29.08Q23.48 29.00 23.24 29.00L23.24 29.00L23.24 29.00Q22.75 29.00 22.04 29.33L22.04 29.33L22.04 29.33Q21.34 29.65 20.79 30.09L20.79 30.09L20.21 29.25L20.21 29.25Q21.06 28.60 21.56 28.23L21.56 28.23L21.56 28.23Q22.06 27.86 22.88 27.35L22.88 27.35L22.88 27.35Q23.70 26.84 24.45 26.60L24.45 26.60L24.45 26.60Q25.21 26.35 25.91 26.35L25.91 26.35L25.91 26.35Q27.28 26.35 27.78 27.16L27.78 27.16L27.78 27.16Q28.28 27.97 28.28 29.48L28.28 29.48L28.67 29.65L28.67 29.65Q30.06 28.23 31.39 27.34L31.39 27.34L31.39 27.34Q32.71 26.46 34.12 26.46L34.12 26.46L34.12 26.46Q35.56 26.46 36.25 27.40L36.25 27.40L36.25 27.40Q36.95 28.34 36.95 29.69L36.95 29.69L34.26 31.78L33.79 31.48L33.79 31.48Q33.61 30.64 33.09 30.08L33.09 30.08L33.09 30.08Q32.57 29.51 31.73 29.51L31.73 29.51L31.73 29.51Q30.73 29.51 30.01 30.02L30.01 30.02L30.01 30.02Q29.30 30.53 28.96 31.37L28.96 31.37L28.96 31.37Q28.62 32.20 28.47 33.02L28.47 33.02L28.47 33.02Q28.32 33.84 28.32 34.70L28.32 34.70L28.32 34.70Q28.32 37.07 28.83 42.75ZM39.39 23.26L39.39 23.26L39.39 23.26Q38.69 22.57 38.69 21.59L38.69 21.59L38.69 21.59Q38.69 20.60 39.39 19.91L39.39 19.91L39.39 19.91Q40.10 19.21 41.06 19.21L41.06 19.21L41.06 19.21Q42.03 19.21 42.73 19.91L42.73 19.91L42.73 19.91Q43.44 20.60 43.44 21.59L43.44 21.59L43.44 21.59Q43.44 22.57 42.73 23.26L42.73 23.26L42.73 23.26Q42.03 23.96 41.06 23.96L41.06 23.96L41.06 23.96Q40.10 23.96 39.39 23.26ZM47.00 39.66L47.00 39.66L47.62 40.24L47.62 40.64L47.62 40.64Q44.54 44.42 41.99 44.42L41.99 44.42L41.99 44.42Q40.57 44.42 39.83 43.40L39.83 43.40L39.83 43.40Q39.59 43.08 39.45 42.67L39.45 42.67L39.45 42.67Q39.30 42.26 39.23 41.86L39.23 41.86L39.23 41.86Q39.15 41.47 39.13 40.67L39.13 40.67L39.13 40.67Q39.11 39.87 39.11 39.23L39.11 39.23L39.11 39.23Q39.11 38.60 39.13 37.24L39.13 37.24L39.13 37.24Q39.15 35.88 39.15 34.80L39.15 34.80L39.15 30.59L39.15 30.59Q38.99 28.83 37.90 28.83L37.90 28.83L37.90 28.83Q37.00 28.83 35.40 29.97L35.40 29.97L34.84 29.18L34.84 29.18Q35.89 28.32 36.68 27.77L36.68 27.77L36.68 27.77Q37.46 27.23 38.63 26.71L38.63 26.71L38.63 26.71Q39.80 26.19 40.76 26.19L40.76 26.19L40.76 26.19Q42.08 26.19 42.57 27.02L42.57 27.02L42.57 27.02Q42.80 27.42 42.90 27.98L42.90 27.98L42.90 27.98Q43.00 28.55 43.00 30.04L43.00 30.04L43.00 30.04Q43.00 30.76 42.94 32.22L42.94 32.22L42.94 32.22Q42.89 33.68 42.89 34.40L42.89 34.40L42.89 34.40Q42.89 34.98 42.88 35.78L42.88 35.78L42.88 35.78Q42.87 36.58 42.86 37.05L42.86 37.05L42.86 37.05Q42.86 37.53 42.86 38.14L42.86 38.14L42.86 38.14Q42.87 38.76 42.91 39.12L42.91 39.12L42.91 39.12Q42.94 39.48 43.00 39.90L43.00 39.90L43.00 39.90Q43.07 40.32 43.18 40.54L43.18 40.54L43.18 40.54Q43.29 40.76 43.47 40.97L43.47 40.97L43.47 40.97Q43.65 41.19 43.88 41.27L43.88 41.27L43.88 41.27Q44.12 41.36 44.44 41.36L44.44 41.36L44.44 41.36Q44.84 41.36 45.36 41.04L45.36 41.04L45.36 41.04Q45.88 40.73 46.19 40.45L46.19 40.45L46.19 40.45Q46.49 40.17 47.00 39.66ZM50.33 23.59L50.31 22.78L54.16 21.48L54.70 21.73L54.70 21.73Q54.70 21.73 54.62 22.71L54.62 22.71L54.62 22.71Q54.54 23.71 54.44 25.18L54.44 25.18L54.44 25.18Q54.33 26.65 54.26 27.63L54.26 27.63L54.53 27.93L59.03 27.93L59.27 28.28L58.90 29.21L58.48 29.55L54.53 29.55L54.23 29.83L54.23 35.56L54.23 35.56Q54.23 36.32 54.24 36.69L54.24 36.69L54.24 36.69Q54.25 37.07 54.26 37.72L54.26 37.72L54.26 37.72Q54.28 38.37 54.33 38.72L54.33 38.72L54.33 38.72Q54.39 39.06 54.47 39.55L54.47 39.55L54.47 39.55Q54.56 40.04 54.71 40.30L54.71 40.30L54.71 40.30Q54.86 40.55 55.06 40.83L55.06 40.83L55.06 40.83Q55.27 41.10 55.56 41.20L55.56 41.20L55.56 41.20Q55.85 41.31 56.21 41.31L56.21 41.31L56.21 41.31Q57.57 41.31 59.13 39.88L59.13 39.88L59.48 39.88L59.92 40.41L59.92 40.41Q56.92 44.35 53.98 44.35L53.98 44.35L53.98 44.35Q53.26 44.35 52.70 44.15L52.70 44.15L52.70 44.15Q52.14 43.95 51.77 43.65L51.77 43.65L51.77 43.65Q51.40 43.35 51.14 42.81L51.14 42.81L51.14 42.81Q50.89 42.28 50.75 41.83L50.75 41.83L50.75 41.83Q50.61 41.38 50.54 40.63L50.54 40.63L50.54 40.63Q50.47 39.88 50.46 39.39L50.46 39.39L50.46 39.39Q50.45 38.90 50.45 38.07L50.45 38.07L50.45 29.87L50.13 29.55L46.16 29.55L45.95 29.25L46.32 28.21L46.71 27.97L50.17 27.97L50.41 27.63L50.41 27.63Q50.40 26.81 50.37 25.60L50.37 25.60L50.37 25.60Q50.34 24.40 50.33 23.59L50.33 23.59ZM62.93 23.26L62.93 23.26L62.93 23.26Q62.23 22.57 62.23 21.59L62.23 21.59L62.23 21.59Q62.23 20.60 62.93 19.91L62.93 19.91L62.93 19.91Q63.63 19.21 64.60 19.21L64.60 19.21L64.60 19.21Q65.57 19.21 66.27 19.91L66.27 19.91L66.27 19.91Q66.97 20.60 66.97 21.59L66.97 21.59L66.97 21.59Q66.97 22.57 66.27 23.26L66.27 23.26L66.27 23.26Q65.57 23.96 64.60 23.96L64.60 23.96L64.60 23.96Q63.63 23.96 62.93 23.26ZM70.54 39.66L70.54 39.66L71.16 40.24L71.16 40.64L71.16 40.64Q68.08 44.42 65.53 44.42L65.53 44.42L65.53 44.42Q64.11 44.42 63.37 43.40L63.37 43.40L63.37 43.40Q63.12 43.08 62.98 42.67L62.98 42.67L62.98 42.67Q62.84 42.26 62.76 41.86L62.76 41.86L62.76 41.86Q62.68 41.47 62.67 40.67L62.67 40.67L62.67 40.67Q62.65 39.87 62.65 39.23L62.65 39.23L62.65 39.23Q62.65 38.60 62.67 37.24L62.67 37.24L62.67 37.24Q62.68 35.88 62.68 34.80L62.68 34.80L62.68 30.59L62.68 30.59Q62.53 28.83 61.44 28.83L61.44 28.83L61.44 28.83Q60.54 28.83 58.94 29.97L58.94 29.97L58.38 29.18L58.38 29.18Q59.43 28.32 60.21 27.77L60.21 27.77L60.21 27.77Q61.00 27.23 62.17 26.71L62.17 26.71L62.17 26.71Q63.33 26.19 64.30 26.19L64.30 26.19L64.30 26.19Q65.62 26.19 66.11 27.02L66.11 27.02L66.11 27.02Q66.34 27.42 66.44 27.98L66.44 27.98L66.44 27.98Q66.53 28.55 66.53 30.04L66.53 30.04L66.53 30.04Q66.53 30.76 66.48 32.22L66.48 32.22L66.48 32.22Q66.43 33.68 66.43 34.40L66.43 34.40L66.43 34.40Q66.43 34.98 66.42 35.78L66.42 35.78L66.42 35.78Q66.41 36.58 66.40 37.05L66.40 37.05L66.40 37.05Q66.39 37.53 66.40 38.14L66.40 38.14L66.40 38.14Q66.41 38.76 66.45 39.12L66.45 39.12L66.45 39.12Q66.48 39.48 66.54 39.90L66.54 39.90L66.54 39.90Q66.60 40.32 66.72 40.54L66.72 40.54L66.72 40.54Q66.83 40.76 67.01 40.97L67.01 40.97L67.01 40.97Q67.18 41.19 67.42 41.27L67.42 41.27L67.42 41.27Q67.66 41.36 67.97 41.36L67.97 41.36L67.97 41.36Q68.38 41.36 68.90 41.04L68.90 41.04L68.90 41.04Q69.42 40.73 69.72 40.45L69.72 40.45L69.72 40.45Q70.03 40.17 70.54 39.66ZM76.73 30.34L76.73 30.34L76.73 30.34Q76.73 34.17 76.82 38.18L76.82 38.18L76.82 38.18Q76.90 42.19 77.08 42.94L77.08 42.94L73.13 44.09L72.69 43.84L72.69 43.84Q72.95 35.02 72.95 33.29L72.95 33.29L72.95 33.29Q72.95 33.19 72.95 32.99L72.95 32.99L72.95 32.99Q72.95 32.26 72.94 31.89L72.94 31.89L72.94 31.89Q72.93 31.52 72.90 30.92L72.90 30.92L72.90 30.92Q72.86 30.32 72.77 30.01L72.77 30.01L72.77 30.01Q72.69 29.71 72.54 29.36L72.54 29.36L72.54 29.36Q72.40 29.02 72.16 28.87L72.16 28.87L72.16 28.87Q71.91 28.72 71.58 28.72L71.58 28.72L71.58 28.72Q71.37 28.72 71.09 28.81L71.09 28.81L71.09 28.81Q70.82 28.90 70.51 29.07L70.51 29.07L70.51 29.07Q70.19 29.23 69.96 29.36L69.96 29.36L69.96 29.36Q69.73 29.48 69.42 29.67L69.42 29.67L69.42 29.67Q69.12 29.87 69.06 29.90L69.06 29.90L68.41 29.04L68.41 29.04Q69.19 28.42 69.78 27.99L69.78 27.99L69.78 27.99Q70.37 27.56 71.17 27.06L71.17 27.06L71.17 27.06Q71.96 26.56 72.75 26.31L72.75 26.31L72.75 26.31Q73.53 26.05 74.23 26.05L74.23 26.05L74.23 26.05Q75.50 26.05 76.02 26.73L76.02 26.73L76.02 26.73Q76.54 27.40 76.62 28.53L76.62 28.53L77.04 28.69L77.04 28.69Q81.12 26.16 84.22 26.16L84.22 26.16L84.22 26.16Q85.29 26.16 86.01 26.53L86.01 26.53L86.01 26.53Q86.73 26.91 87.10 27.34L87.10 27.34L87.10 27.34Q87.47 27.77 87.64 28.91L87.64 28.91L87.64 28.91Q87.82 30.04 87.85 30.70L87.85 30.70L87.85 30.70Q87.87 31.36 87.86 33.06L87.86 33.06L87.86 33.06Q87.86 33.75 87.86 34.12L87.86 34.12L87.86 34.12Q87.86 34.66 87.79 35.96L87.79 35.96L87.79 35.96Q87.73 37.25 87.73 37.83L87.73 37.83L87.73 37.83Q87.73 38.79 87.82 39.35L87.82 39.35L87.82 39.35Q87.91 39.90 88.00 40.07L88.00 40.07L88.00 40.07Q88.10 40.24 88.31 40.41L88.31 40.41L88.31 40.41Q88.68 40.78 89.33 40.78L89.33 40.78L89.33 40.78Q90.42 40.78 91.74 39.85L91.74 39.85L92.16 39.85L92.57 40.45L92.57 40.45Q90.69 42.33 89.86 42.96L89.86 42.96L89.86 42.96Q88.15 44.30 86.84 44.30L86.84 44.30L86.84 44.30Q85.66 44.30 84.90 43.59L84.90 43.59L84.90 43.59Q84.67 43.38 84.52 43.12L84.52 43.12L84.52 43.12Q84.36 42.86 84.27 42.41L84.27 42.41L84.27 42.41Q84.18 41.96 84.13 41.58L84.13 41.58L84.13 41.58Q84.08 41.20 84.06 40.43L84.06 40.43L84.06 40.43Q84.04 39.66 84.05 39.08L84.05 39.08L84.05 39.08Q84.06 38.51 84.07 37.34L84.07 37.34L84.07 37.34Q84.08 36.16 84.08 35.30L84.08 35.30L84.08 35.30Q84.08 33.84 84.04 32.92L84.04 32.92L84.04 32.92Q84.01 31.99 83.77 30.83L83.77 30.83L83.77 30.83Q83.53 29.67 83.09 29.25L83.09 29.25L83.09 29.25Q82.49 28.69 81.09 28.69L81.09 28.69L81.09 28.69Q79.79 28.69 76.73 30.34ZM94.89 23.26L94.89 23.26L94.89 23.26Q94.18 22.57 94.18 21.59L94.18 21.59L94.18 21.59Q94.18 20.60 94.89 19.91L94.89 19.91L94.89 19.91Q95.59 19.21 96.56 19.21L96.56 19.21L96.56 19.21Q97.52 19.21 98.23 19.91L98.23 19.91L98.23 19.91Q98.93 20.60 98.93 21.59L98.93 21.59L98.93 21.59Q98.93 22.57 98.23 23.26L98.23 23.26L98.23 23.26Q97.52 23.96 96.56 23.96L96.56 23.96L96.56 23.96Q95.59 23.96 94.89 23.26ZM102.50 39.66L102.50 39.66L103.11 40.24L103.11 40.64L103.11 40.64Q100.04 44.42 97.49 44.42L97.49 44.42L97.49 44.42Q96.06 44.42 95.33 43.40L95.33 43.40L95.33 43.40Q95.08 43.08 94.94 42.67L94.94 42.67L94.94 42.67Q94.80 42.26 94.72 41.86L94.72 41.86L94.72 41.86Q94.64 41.47 94.62 40.67L94.62 40.67L94.62 40.67Q94.61 39.87 94.61 39.23L94.61 39.23L94.61 39.23Q94.61 38.60 94.62 37.24L94.62 37.24L94.62 37.24Q94.64 35.88 94.64 34.80L94.64 34.80L94.64 30.59L94.64 30.59Q94.48 28.83 93.39 28.83L93.39 28.83L93.39 28.83Q92.50 28.83 90.90 29.97L90.90 29.97L90.33 29.18L90.33 29.18Q91.39 28.32 92.17 27.77L92.17 27.77L92.17 27.77Q92.95 27.23 94.12 26.71L94.12 26.71L94.12 26.71Q95.29 26.19 96.26 26.19L96.26 26.19L96.26 26.19Q97.58 26.19 98.07 27.02L98.07 27.02L98.07 27.02Q98.30 27.42 98.39 27.98L98.39 27.98L98.39 27.98Q98.49 28.55 98.49 30.04L98.49 30.04L98.49 30.04Q98.49 30.76 98.44 32.22L98.44 32.22L98.44 32.22Q98.38 33.68 98.38 34.40L98.38 34.40L98.38 34.40Q98.38 34.98 98.38 35.78L98.38 35.78L98.38 35.78Q98.37 36.58 98.36 37.05L98.36 37.05L98.36 37.05Q98.35 37.53 98.36 38.14L98.36 38.14L98.36 38.14Q98.37 38.76 98.40 39.12L98.40 39.12L98.40 39.12Q98.44 39.48 98.50 39.90L98.50 39.90L98.50 39.90Q98.56 40.32 98.67 40.54L98.67 40.54L98.67 40.54Q98.79 40.76 98.96 40.97L98.96 40.97L98.96 40.97Q99.14 41.19 99.38 41.27L99.38 41.27L99.38 41.27Q99.62 41.36 99.93 41.36L99.93 41.36L99.93 41.36Q100.34 41.36 100.85 41.04L100.85 41.04L100.85 41.04Q101.37 40.73 101.68 40.45L101.68 40.45L101.68 40.45Q101.99 40.17 102.50 39.66ZM118.14 27.56L120.30 26.19L120.81 26.53L120.81 26.53Q120.23 32.52 120.23 36.35L120.23 36.35L120.23 36.35Q120.23 37.86 120.25 38.53L120.25 38.53L120.25 38.53Q120.27 39.20 120.38 39.98L120.38 39.98L120.38 39.98Q120.48 40.76 120.74 41.04L120.74 41.04L120.74 41.04Q120.99 41.31 121.43 41.31L121.43 41.31L121.43 41.31Q122.27 41.31 123.94 39.80L123.94 39.80L124.63 40.55L124.63 40.55Q124.00 41.31 123.42 41.90L123.42 41.90L123.42 41.90Q122.84 42.49 122.06 43.10L122.06 43.10L122.06 43.10Q121.29 43.72 120.42 44.05L120.42 44.05L120.42 44.05Q119.55 44.38 118.69 44.38L118.69 44.38L118.69 44.38Q116.77 44.38 116.46 41.99L116.46 41.99L116.00 41.82L116.00 41.82Q112.46 44.49 109.30 44.49L109.30 44.49L109.30 44.49Q107.91 44.49 106.88 43.77L106.88 43.77L106.88 43.77Q105.84 43.05 105.28 41.89L105.28 41.89L105.28 41.89Q104.71 40.73 104.45 39.51L104.45 39.51L104.45 39.51Q104.19 38.29 104.19 37.07L104.19 37.07L104.19 37.07Q104.19 31.61 106.39 28.81L106.39 28.81L106.39 28.81Q108.60 26.02 112.89 26.02L112.89 26.02L112.89 26.02Q115.61 26.02 118.14 27.56L118.14 27.56ZM116.53 32.03L116.53 32.03L116.53 32.03Q116.53 27.39 113.22 27.39L113.22 27.39L113.22 27.39Q112.22 27.39 111.41 27.76L111.41 27.76L111.41 27.76Q110.60 28.14 110.08 28.81L110.08 28.81L110.08 28.81Q109.56 29.48 109.19 30.29L109.19 30.29L109.19 30.29Q108.81 31.10 108.62 32.07L108.62 32.07L108.62 32.07Q108.42 33.05 108.33 33.91L108.33 33.91L108.33 33.91Q108.25 34.77 108.25 35.67L108.25 35.67L108.25 35.67Q108.25 36.70 108.42 37.67L108.42 37.67L108.42 37.67Q108.60 38.64 108.99 39.59L108.99 39.59L108.99 39.59Q109.39 40.54 110.17 41.11L110.17 41.11L110.17 41.11Q110.95 41.68 112.03 41.68L112.03 41.68L112.03 41.68Q114.15 41.68 116.24 39.73L116.24 39.73L116.24 39.73Q116.53 37.62 116.53 32.03ZM148.45 21.55L145.02 24.22L144.40 24.03L144.40 24.03Q144.14 22.06 142.90 20.67L142.90 20.67L142.90 20.67Q141.66 19.28 139.59 19.28L139.59 19.28L139.59 19.28Q137.90 19.28 136.87 20.34L136.87 20.34L136.87 20.34Q135.84 21.39 135.84 22.92L135.84 22.92L135.84 22.92Q135.84 23.82 136.20 24.62L136.20 24.62L136.20 24.62Q136.55 25.42 137.04 25.99L137.04 25.99L137.04 25.99Q137.53 26.56 138.38 27.16L138.38 27.16L138.38 27.16Q139.22 27.76 139.85 28.12L139.85 28.12L139.85 28.12Q140.48 28.48 141.49 28.97L141.49 28.97L141.49 28.97Q142.91 29.71 143.84 30.24L143.84 30.24L143.84 30.24Q144.77 30.78 145.71 31.48L145.71 31.48L145.71 31.48Q146.65 32.19 147.18 32.86L147.18 32.86L147.18 32.86Q147.71 33.54 148.04 34.41L148.04 34.41L148.04 34.41Q148.38 35.28 148.38 36.28L148.38 36.28L148.38 36.28Q148.38 38.06 147.37 39.63L147.37 39.63L147.37 39.63Q146.36 41.20 144.76 42.23L144.76 42.23L144.76 42.23Q143.16 43.26 141.21 43.86L141.21 43.86L141.21 43.86Q139.25 44.46 137.36 44.46L137.36 44.46L137.36 44.46Q135.14 44.46 133.22 43.51L133.22 43.51L133.22 43.51Q131.31 42.57 130.08 40.82L130.08 40.82L133.58 36.90L134.26 37.14L134.26 37.14Q134.26 39.30 135.69 40.99L135.69 40.99L135.69 40.99Q137.13 42.68 139.41 42.68L139.41 42.68L139.41 42.68Q141.31 42.68 142.66 41.33L142.66 41.33L142.66 41.33Q144.02 39.99 144.02 38.25L144.02 38.25L144.02 38.25Q144.02 36.62 142.07 34.80L142.07 34.80L142.07 34.80Q141.50 34.28 140.42 33.64L140.42 33.64L140.42 33.64Q139.34 32.99 138.26 32.44L138.26 32.44L138.26 32.44Q137.18 31.89 135.99 31.10L135.99 31.10L135.99 31.10Q134.81 30.32 133.92 29.53L133.92 29.53L133.92 29.53Q133.03 28.74 132.44 27.61L132.44 27.61L132.44 27.61Q131.85 26.47 131.85 25.22L131.85 25.22L131.85 25.22Q131.85 23.34 132.64 21.89L132.64 21.89L132.64 21.89Q133.44 20.44 134.78 19.60L134.78 19.60L134.78 19.60Q136.13 18.76 137.75 18.33L137.75 18.33L137.75 18.33Q139.38 17.91 141.21 17.91L141.21 17.91L141.21 17.91Q144.09 17.91 145.86 18.76L145.86 18.76L145.86 18.76Q147.64 19.60 148.45 21.55L148.45 21.55ZM166.11 30.30L166.11 30.30L162.79 32.27L162.18 32.03L162.18 32.03Q162.18 30.13 161.40 28.83L161.40 28.83L161.40 28.83Q160.63 27.53 159.01 27.53L159.01 27.53L159.01 27.53Q157.90 27.53 157.08 28.33L157.08 28.33L157.08 28.33Q156.25 29.13 155.83 30.37L155.83 30.37L155.83 30.37Q155.41 31.61 155.21 32.78L155.21 32.78L155.21 32.78Q155.02 33.96 155.02 35.02L155.02 35.02L155.02 35.02Q155.02 35.89 155.16 36.77L155.16 36.77L155.16 36.77Q155.30 37.65 155.66 38.58L155.66 38.58L155.66 38.58Q156.02 39.50 156.55 40.21L156.55 40.21L156.55 40.21Q157.08 40.92 157.95 41.37L157.95 41.37L157.95 41.37Q158.82 41.82 159.91 41.82L159.91 41.82L159.91 41.82Q162.63 41.82 165.85 39.34L165.85 39.34L166.29 39.45L166.64 39.96L166.64 39.96Q162.30 44.30 157.36 44.30L157.36 44.30L157.36 44.30Q155.65 44.30 154.34 43.67L154.34 43.67L154.34 43.67Q153.04 43.05 152.28 41.99L152.28 41.99L152.28 41.99Q151.52 40.92 151.15 39.66L151.15 39.66L151.15 39.66Q150.77 38.39 150.77 37.00L150.77 37.00L150.77 37.00Q150.77 35.37 151.08 33.86L151.08 33.86L151.08 33.86Q151.40 32.34 152.13 30.91L152.13 30.91L152.13 30.91Q152.86 29.48 153.96 28.42L153.96 28.42L153.96 28.42Q155.06 27.37 156.74 26.73L156.74 26.73L156.74 26.73Q158.41 26.09 160.49 26.09L160.49 26.09L160.49 26.09Q161.56 26.09 162.48 26.30L162.48 26.30L162.48 26.30Q163.41 26.51 164.22 26.97L164.22 26.97L164.22 26.97Q165.04 27.44 165.54 28.29L165.54 28.29L165.54 28.29Q166.04 29.14 166.11 30.30ZM182.04 27.56L184.20 26.19L184.71 26.53L184.71 26.53Q184.13 32.52 184.13 36.35L184.13 36.35L184.13 36.35Q184.13 37.86 184.15 38.53L184.15 38.53L184.15 38.53Q184.17 39.20 184.27 39.98L184.27 39.98L184.27 39.98Q184.38 40.76 184.63 41.04L184.63 41.04L184.63 41.04Q184.89 41.31 185.33 41.31L185.33 41.31L185.33 41.31Q186.17 41.31 187.84 39.80L187.84 39.80L188.53 40.55L188.53 40.55Q187.89 41.31 187.31 41.90L187.31 41.90L187.31 41.90Q186.73 42.49 185.96 43.10L185.96 43.10L185.96 43.10Q185.19 43.72 184.32 44.05L184.32 44.05L184.32 44.05Q183.45 44.38 182.58 44.38L182.58 44.38L182.58 44.38Q180.67 44.38 180.35 41.99L180.35 41.99L179.89 41.82L179.89 41.82Q176.36 44.49 173.20 44.49L173.20 44.49L173.20 44.49Q171.81 44.49 170.77 43.77L170.77 43.77L170.77 43.77Q169.73 43.05 169.17 41.89L169.17 41.89L169.17 41.89Q168.61 40.73 168.35 39.51L168.35 39.51L168.35 39.51Q168.08 38.29 168.08 37.07L168.08 37.07L168.08 37.07Q168.08 31.61 170.29 28.81L170.29 28.81L170.29 28.81Q172.49 26.02 176.78 26.02L176.78 26.02L176.78 26.02Q179.51 26.02 182.04 27.56L182.04 27.56ZM180.42 32.03L180.42 32.03L180.42 32.03Q180.42 27.39 177.12 27.39L177.12 27.39L177.12 27.39Q176.12 27.39 175.31 27.76L175.31 27.76L175.31 27.76Q174.50 28.14 173.98 28.81L173.98 28.81L173.98 28.81Q173.46 29.48 173.08 30.29L173.08 30.29L173.08 30.29Q172.71 31.10 172.51 32.07L172.51 32.07L172.51 32.07Q172.32 33.05 172.23 33.91L172.23 33.91L172.23 33.91Q172.14 34.77 172.14 35.67L172.14 35.67L172.14 35.67Q172.14 36.70 172.32 37.67L172.32 37.67L172.32 37.67Q172.49 38.64 172.89 39.59L172.89 39.59L172.89 39.59Q173.29 40.54 174.07 41.11L174.07 41.11L174.07 41.11Q174.85 41.68 175.92 41.68L175.92 41.68L175.92 41.68Q178.05 41.68 180.14 39.73L180.14 39.73L180.14 39.73Q180.42 37.62 180.42 32.03ZM193.64 30.34L193.64 30.34L193.64 30.34Q193.64 34.17 193.73 38.18L193.73 38.18L193.73 38.18Q193.82 42.19 193.99 42.94L193.99 42.94L190.04 44.09L189.60 43.84L189.60 43.84Q189.86 35.02 189.86 33.29L189.86 33.29L189.86 33.29Q189.86 33.19 189.86 32.99L189.86 32.99L189.86 32.99Q189.86 32.26 189.85 31.89L189.85 31.89L189.85 31.89Q189.84 31.52 189.81 30.92L189.81 30.92L189.81 30.92Q189.77 30.32 189.69 30.01L189.69 30.01L189.69 30.01Q189.60 29.71 189.46 29.36L189.46 29.36L189.46 29.36Q189.32 29.02 189.07 28.87L189.07 28.87L189.07 28.87Q188.82 28.72 188.49 28.72L188.49 28.72L188.49 28.72Q188.28 28.72 188.01 28.81L188.01 28.81L188.01 28.81Q187.73 28.90 187.42 29.07L187.42 29.07L187.42 29.07Q187.10 29.23 186.87 29.36L186.87 29.36L186.87 29.36Q186.64 29.48 186.34 29.67L186.34 29.67L186.34 29.67Q186.03 29.87 185.98 29.90L185.98 29.90L185.33 29.04L185.33 29.04Q186.10 28.42 186.69 27.99L186.69 27.99L186.69 27.99Q187.28 27.56 188.08 27.06L188.08 27.06L188.08 27.06Q188.88 26.56 189.66 26.31L189.66 26.31L189.66 26.31Q190.44 26.05 191.14 26.05L191.14 26.05L191.14 26.05Q192.41 26.05 192.93 26.73L192.93 26.73L192.93 26.73Q193.45 27.40 193.54 28.53L193.54 28.53L193.96 28.69L193.96 28.69Q198.04 26.16 201.13 26.16L201.13 26.16L201.13 26.16Q202.20 26.16 202.92 26.53L202.92 26.53L202.92 26.53Q203.64 26.91 204.01 27.34L204.01 27.34L204.01 27.34Q204.38 27.77 204.56 28.91L204.56 28.91L204.56 28.91Q204.73 30.04 204.76 30.70L204.76 30.70L204.76 30.70Q204.79 31.36 204.77 33.06L204.77 33.06L204.77 33.06Q204.77 33.75 204.77 34.12L204.77 34.12L204.77 34.12Q204.77 34.66 204.71 35.96L204.71 35.96L204.71 35.96Q204.64 37.25 204.64 37.83L204.64 37.83L204.64 37.83Q204.64 38.79 204.73 39.35L204.73 39.35L204.73 39.35Q204.82 39.90 204.92 40.07L204.92 40.07L204.92 40.07Q205.01 40.24 205.22 40.41L205.22 40.41L205.22 40.41Q205.59 40.78 206.24 40.78L206.24 40.78L206.24 40.78Q207.33 40.78 208.65 39.85L208.65 39.85L209.07 39.85L209.48 40.45L209.48 40.45Q207.60 42.33 206.77 42.96L206.77 42.96L206.77 42.96Q205.07 44.30 203.75 44.30L203.75 44.30L203.75 44.30Q202.57 44.30 201.81 43.59L201.81 43.59L201.81 43.59Q201.59 43.38 201.43 43.12L201.43 43.12L201.43 43.12Q201.27 42.86 201.18 42.41L201.18 42.41L201.18 42.41Q201.09 41.96 201.04 41.58L201.04 41.58L201.04 41.58Q200.99 41.20 200.97 40.43L200.97 40.43L200.97 40.43Q200.95 39.66 200.96 39.08L200.96 39.08L200.96 39.08Q200.97 38.51 200.98 37.34L200.98 37.34L200.98 37.34Q200.99 36.16 200.99 35.30L200.99 35.30L200.99 35.30Q200.99 33.84 200.95 32.92L200.95 32.92L200.95 32.92Q200.92 31.99 200.68 30.83L200.68 30.83L200.68 30.83Q200.44 29.67 200.00 29.25L200.00 29.25L200.00 29.25Q199.41 28.69 198 28.69L198 28.69L198 28.69Q196.70 28.69 193.64 30.34ZM222.17 28.62L222.17 28.62L219.55 31.27L219.01 31.13L219.01 31.13Q218.90 30.46 218.66 29.85L218.66 29.85L218.66 29.85Q218.43 29.23 218.01 28.69L218.01 28.69L218.01 28.69Q217.60 28.14 216.95 27.82L216.95 27.82L216.95 27.82Q216.30 27.49 215.49 27.49L215.49 27.49L215.49 27.49Q214.31 27.49 213.72 28.18L213.72 28.18L213.72 28.18Q213.13 28.86 213.13 30.09L213.13 30.09L213.13 30.09Q213.13 30.53 213.30 30.95L213.30 30.95L213.30 30.95Q213.47 31.36 213.69 31.68L213.69 31.68L213.69 31.68Q213.91 31.99 214.34 32.33L214.34 32.33L214.34 32.33Q214.77 32.68 215.08 32.89L215.08 32.89L215.08 32.89Q215.38 33.10 215.96 33.39L215.96 33.39L215.96 33.39Q216.53 33.68 216.79 33.80L216.79 33.80L216.79 33.80Q217.05 33.93 217.63 34.19L217.63 34.19L217.63 34.19Q219.02 34.82 219.80 35.25L219.80 35.25L219.80 35.25Q220.57 35.68 221.23 36.25L221.23 36.25L221.23 36.25Q221.89 36.81 222.14 37.45L222.14 37.45L222.14 37.45Q222.40 38.09 222.40 38.97L222.40 38.97L222.40 38.97Q222.40 40.32 221.69 41.41L221.69 41.41L221.69 41.41Q220.97 42.50 219.81 43.15L219.81 43.15L219.81 43.15Q218.65 43.80 217.31 44.15L217.31 44.15L217.31 44.15Q215.96 44.49 214.58 44.49L214.58 44.49L214.58 44.49Q210.53 44.49 208.35 42.08L208.35 42.08L210.62 38.69L211.17 38.72L211.17 38.72Q211.41 39.64 211.68 40.31L211.68 40.31L211.68 40.31Q211.96 40.97 212.43 41.69L212.43 41.69L212.43 41.69Q212.91 42.40 213.64 42.78L213.64 42.78L213.64 42.78Q214.38 43.15 215.37 43.15L215.37 43.15L215.37 43.15Q216.60 43.15 217.48 42.42L217.48 42.42L217.48 42.42Q218.36 41.70 218.36 40.52L218.36 40.52L218.36 40.52Q218.36 39.64 217.53 38.87L217.53 38.87L217.53 38.87Q217.13 38.50 216.32 38.06L216.32 38.06L216.32 38.06Q215.51 37.62 214.67 37.24L214.67 37.24L214.67 37.24Q213.84 36.86 212.92 36.33L212.92 36.33L212.92 36.33Q211.99 35.79 211.29 35.22L211.29 35.22L211.29 35.22Q210.59 34.65 210.12 33.81L210.12 33.81L210.12 33.81Q209.65 32.98 209.65 32.03L209.65 32.03L209.65 32.03Q209.65 30.55 210.24 29.39L210.24 29.39L210.24 29.39Q210.83 28.23 211.84 27.54L211.84 27.54L211.84 27.54Q212.85 26.86 214.12 26.51L214.12 26.51L214.12 26.51Q215.38 26.16 216.81 26.16L216.81 26.16L216.81 26.16Q218.71 26.16 220.09 26.67L220.09 26.67L220.09 26.67Q221.47 27.19 222.17 28.62Z" transform="rotate(0 110.76999723911285 31.200000762939453)"></path><defs id="SvgjsDefs1010"></defs></svg></g><g id="SvgjsG1013" transform="rotate(0 179.6875 80)"><svg xmlns="http://www.w3.org/2000/svg" xmlns:xlink="http://www.w3.org/1999/xlink" width="155.375" viewBox="1.059999942779541 3.200000047683716 155.3800048828125 17.34000015258789" overflow="visible" style="overflow: visible;" transform="" version="1.1" xmlns:svgjs="http://svgjs.com/svgjs" preserveAspectRatio="none" height="17" x="102" y="71.5" fill="#000000" stroke="none"><path stroke="none" fill="#adadad" d="M11.04 9.62L11.04 11.00L11.04 11.00Q11.04 12.82 10.39 14.18L10.39 14.18L10.39 14.18Q9.75 15.54 8.55 16.23L8.55 16.23L10.88 18.26L10.13 18.93L7.52 16.67L7.52 16.67Q6.80 16.88 6.06 16.88L6.06 16.88L6.06 16.88Q4.60 16.88 3.46 16.15L3.46 16.15L3.46 16.15Q2.32 15.43 1.70 14.11L1.70 14.11L1.70 14.11Q1.07 12.79 1.06 11.06L1.06 11.06L1.06 9.62L1.06 9.62Q1.06 7.88 1.68 6.53L1.68 6.53L1.68 6.53Q2.30 5.18 3.44 4.45L3.44 4.45L3.44 4.45Q4.57 3.73 6.04 3.73L6.04 3.73L6.04 3.73Q7.53 3.73 8.67 4.45L8.67 4.45L8.67 4.45Q9.80 5.17 10.42 6.51L10.42 6.51L10.42 6.51Q11.04 7.86 11.04 9.62L11.04 9.62ZM9.96 10.97L9.96 9.61L9.96 9.61Q9.96 7.29 8.91 5.99L8.91 5.99L8.91 5.99Q7.87 4.68 6.04 4.68L6.04 4.68L6.04 4.68Q4.26 4.68 3.20 5.99L3.20 5.99L3.20 5.99Q2.14 7.30 2.14 9.66L2.14 9.66L2.14 11.00L2.14 11.00Q2.14 13.27 3.19 14.60L3.19 14.60L3.19 14.60Q4.25 15.93 6.06 15.93L6.06 15.93L6.06 15.93Q7.88 15.93 8.92 14.63L8.92 14.63L8.92 14.63Q9.96 13.32 9.96 10.97L9.96 10.97ZM20.69 16.70L20.67 15.50L20.67 15.50Q19.72 16.88 17.64 16.88L17.64 16.88L17.64 16.88Q16.12 16.88 15.33 15.99L15.33 15.99L15.33 15.99Q14.54 15.11 14.52 13.38L14.52 13.38L14.52 7.19L15.56 7.19L15.56 13.25L15.56 13.25Q15.56 15.96 17.76 15.96L17.76 15.96L17.76 15.96Q20.05 15.96 20.65 14.07L20.65 14.07L20.65 7.19L21.71 7.19L21.71 16.70L20.69 16.70ZM32.57 16.70L31.44 16.70L31.44 16.70Q31.29 16.25 31.24 15.37L31.24 15.37L31.24 15.37Q30.69 16.09 29.83 16.48L29.83 16.48L29.83 16.48Q28.97 16.88 28.02 16.88L28.02 16.88L28.02 16.88Q26.64 16.88 25.80 16.11L25.80 16.11L25.80 16.11Q24.95 15.35 24.95 14.18L24.95 14.18L24.95 14.18Q24.95 12.79 26.10 11.98L26.10 11.98L26.10 11.98Q27.26 11.17 29.33 11.17L29.33 11.17L31.23 11.17L31.23 10.09L31.23 10.09Q31.23 9.07 30.60 8.49L30.60 8.49L30.60 8.49Q29.98 7.90 28.77 7.90L28.77 7.90L28.77 7.90Q27.67 7.90 26.95 8.46L26.95 8.46L26.95 8.46Q26.23 9.03 26.23 9.82L26.23 9.82L25.18 9.81L25.18 9.81Q25.18 8.67 26.23 7.84L26.23 7.84L26.23 7.84Q27.29 7.01 28.82 7.01L28.82 7.01L28.82 7.01Q30.42 7.01 31.33 7.81L31.33 7.81L31.33 7.81Q32.25 8.60 32.28 10.03L32.28 10.03L32.28 14.53L32.28 14.53Q32.28 15.91 32.57 16.59L32.57 16.59L32.57 16.70ZM28.14 15.94L28.14 15.94L28.14 15.94Q29.19 15.94 30.02 15.43L30.02 15.43L30.02 15.43Q30.85 14.92 31.23 14.07L31.23 14.07L31.23 11.98L29.35 11.98L29.35 11.98Q27.78 12.00 26.89 12.56L26.89 12.56L26.89 12.56Q26.00 13.11 26.00 14.09L26.00 14.09L26.00 14.09Q26.00 14.89 26.60 15.42L26.60 15.42L26.60 15.42Q27.19 15.94 28.14 15.94ZM37.26 3.20L37.26 16.70L36.21 16.70L36.21 3.20L37.26 3.20ZM42.29 7.19L42.29 16.70L41.24 16.70L41.24 7.19L42.29 7.19ZM41.05 4.44L41.05 4.44L41.05 4.44Q41.05 4.14 41.25 3.93L41.25 3.93L41.25 3.93Q41.44 3.73 41.78 3.73L41.78 3.73L41.78 3.73Q42.11 3.73 42.31 3.93L42.31 3.93L42.31 3.93Q42.50 4.14 42.50 4.44L42.50 4.44L42.50 4.44Q42.50 4.74 42.31 4.94L42.31 4.94L42.31 4.94Q42.11 5.14 41.78 5.14L41.78 5.14L41.78 5.14Q41.44 5.14 41.25 4.94L41.25 4.94L41.25 4.94Q41.05 4.74 41.05 4.44ZM46.73 4.75L47.79 4.75L47.79 7.19L49.75 7.19L49.75 8.05L47.79 8.05L47.79 14.39L47.79 14.39Q47.79 15.18 48.07 15.57L48.07 15.57L48.07 15.57Q48.36 15.95 49.02 15.95L49.02 15.95L49.02 15.95Q49.29 15.95 49.88 15.86L49.88 15.86L49.92 16.73L49.92 16.73Q49.51 16.88 48.80 16.88L48.80 16.88L48.80 16.88Q47.71 16.88 47.22 16.25L47.22 16.25L47.22 16.25Q46.73 15.62 46.73 14.40L46.73 14.40L46.73 8.05L44.98 8.05L44.98 7.19L46.73 7.19L46.73 4.75ZM53.00 7.19L55.95 15.19L58.73 7.19L59.86 7.19L55.80 18.32L55.59 18.81L55.59 18.81Q54.81 20.54 53.17 20.54L53.17 20.54L53.17 20.54Q52.79 20.54 52.36 20.42L52.36 20.42L52.35 19.55L52.90 19.60L52.90 19.60Q53.67 19.60 54.15 19.22L54.15 19.22L54.15 19.22Q54.63 18.83 54.96 17.90L54.96 17.90L55.43 16.62L51.84 7.19L53.00 7.19ZM69.92 9.81L70.04 9.72L70.04 9.72Q69.28 8.80 68.93 8.07L68.93 8.07L68.93 8.07Q68.58 7.35 68.58 6.64L68.58 6.64L68.58 6.64Q68.58 5.29 69.38 4.51L69.38 4.51L69.38 4.51Q70.18 3.73 71.53 3.73L71.53 3.73L71.53 3.73Q72.75 3.73 73.50 4.43L73.50 4.43L73.50 4.43Q74.26 5.14 74.26 6.23L74.26 6.23L74.26 6.23Q74.26 7.50 72.80 8.72L72.80 8.72L71.40 9.81L74.91 13.90L74.91 13.90Q75.71 12.61 75.71 10.98L75.71 10.98L76.69 10.98L76.69 10.98Q76.69 13.16 75.56 14.66L75.56 14.66L77.31 16.70L76.04 16.70L74.94 15.42L74.94 15.42Q74.24 16.10 73.33 16.49L73.33 16.49L73.33 16.49Q72.42 16.88 71.41 16.88L71.41 16.88L71.41 16.88Q69.58 16.88 68.51 15.94L68.51 15.94L68.51 15.94Q67.44 15.00 67.44 13.44L67.44 13.44L67.44 13.44Q67.44 12.51 67.99 11.68L67.99 11.68L67.99 11.68Q68.54 10.85 69.92 9.81L69.92 9.81ZM71.41 15.99L71.41 15.99L71.41 15.99Q72.21 15.99 72.96 15.65L72.96 15.65L72.96 15.65Q73.72 15.31 74.31 14.69L74.31 14.69L70.74 10.54L70.61 10.41L70.21 10.71L70.21 10.71Q68.49 12.12 68.49 13.44L68.49 13.44L68.49 13.44Q68.49 14.59 69.28 15.29L69.28 15.29L69.28 15.29Q70.07 15.99 71.41 15.99ZM69.64 6.60L69.64 6.60L69.64 6.60Q69.64 7.67 70.82 9.13L70.82 9.13L71.98 8.25L71.98 8.25Q72.54 7.85 72.90 7.37L72.90 7.37L72.90 7.37Q73.26 6.88 73.26 6.23L73.26 6.23L73.26 6.23Q73.26 5.55 72.78 5.08L72.78 5.08L72.78 5.08Q72.31 4.62 71.52 4.62L71.52 4.62L71.52 4.62Q70.66 4.62 70.15 5.18L70.15 5.18L70.15 5.18Q69.64 5.73 69.64 6.60ZM94.98 9.62L94.98 11.00L94.98 11.00Q94.98 12.82 94.34 14.18L94.34 14.18L94.34 14.18Q93.69 15.54 92.49 16.23L92.49 16.23L94.82 18.26L94.08 18.93L91.47 16.67L91.47 16.67Q90.75 16.88 90.00 16.88L90.00 16.88L90.00 16.88Q88.54 16.88 87.40 16.15L87.40 16.15L87.40 16.15Q86.26 15.43 85.64 14.11L85.64 14.11L85.64 14.11Q85.01 12.79 85.01 11.06L85.01 11.06L85.01 9.62L85.01 9.62Q85.01 7.88 85.63 6.53L85.63 6.53L85.63 6.53Q86.25 5.18 87.38 4.45L87.38 4.45L87.38 4.45Q88.51 3.73 89.98 3.73L89.98 3.73L89.98 3.73Q91.47 3.73 92.61 4.45L92.61 4.45L92.61 4.45Q93.74 5.17 94.36 6.51L94.36 6.51L94.36 6.51Q94.98 7.86 94.98 9.62L94.98 9.62ZM93.90 10.97L93.90 9.61L93.90 9.61Q93.90 7.29 92.85 5.99L92.85 5.99L92.85 5.99Q91.81 4.68 89.98 4.68L89.98 4.68L89.98 4.68Q88.21 4.68 87.15 5.99L87.15 5.99L87.15 5.99Q86.09 7.30 86.09 9.66L86.09 9.66L86.09 11.00L86.09 11.00Q86.09 13.27 87.14 14.60L87.14 14.60L87.14 14.60Q88.19 15.93 90.00 15.93L90.00 15.93L90.00 15.93Q91.83 15.93 92.86 14.63L92.86 14.63L92.86 14.63Q93.90 13.32 93.90 10.97L93.90 10.97ZM104.63 16.70L104.61 15.50L104.61 15.50Q103.66 16.88 101.58 16.88L101.58 16.88L101.58 16.88Q100.06 16.88 99.27 15.99L99.27 15.99L99.27 15.99Q98.48 15.11 98.46 13.38L98.46 13.38L98.46 7.19L99.51 7.19L99.51 13.25L99.51 13.25Q99.51 15.96 101.70 15.96L101.70 15.96L101.70 15.96Q103.99 15.96 104.59 14.07L104.59 14.07L104.59 7.19L105.65 7.19L105.65 16.70L104.63 16.70ZM116.51 16.70L115.39 16.70L115.39 16.70Q115.23 16.25 115.18 15.37L115.18 15.37L115.18 15.37Q114.63 16.09 113.77 16.48L113.77 16.48L113.77 16.48Q112.92 16.88 111.96 16.88L111.96 16.88L111.96 16.88Q110.59 16.88 109.74 16.11L109.74 16.11L109.74 16.11Q108.89 15.35 108.89 14.18L108.89 14.18L108.89 14.18Q108.89 12.79 110.05 11.98L110.05 11.98L110.05 11.98Q111.20 11.17 113.27 11.17L113.27 11.17L115.17 11.17L115.17 10.09L115.17 10.09Q115.17 9.07 114.55 8.49L114.55 8.49L114.55 8.49Q113.92 7.90 112.71 7.90L112.71 7.90L112.71 7.90Q111.62 7.90 110.89 8.46L110.89 8.46L110.89 8.46Q110.17 9.03 110.17 9.82L110.17 9.82L109.12 9.81L109.12 9.81Q109.12 8.67 110.17 7.84L110.17 7.84L110.17 7.84Q111.23 7.01 112.77 7.01L112.77 7.01L112.77 7.01Q114.36 7.01 115.28 7.81L115.28 7.81L115.28 7.81Q116.19 8.60 116.22 10.03L116.22 10.03L116.22 14.53L116.22 14.53Q116.22 15.91 116.51 16.59L116.51 16.59L116.51 16.70ZM112.08 15.94L112.08 15.94L112.08 15.94Q113.14 15.94 113.97 15.43L113.97 15.43L113.97 15.43Q114.80 14.92 115.17 14.07L115.17 14.07L115.17 11.98L113.29 11.98L113.29 11.98Q111.72 12.00 110.83 12.56L110.83 12.56L110.83 12.56Q109.95 13.11 109.95 14.09L109.95 14.09L109.95 14.09Q109.95 14.89 110.54 15.42L110.54 15.42L110.54 15.42Q111.13 15.94 112.08 15.94ZM120.02 7.19L121.03 7.19L121.06 8.82L121.06 8.82Q121.60 7.94 122.40 7.48L122.40 7.48L122.40 7.48Q123.20 7.01 124.16 7.01L124.16 7.01L124.16 7.01Q125.69 7.01 126.44 7.88L126.44 7.88L126.44 7.88Q127.19 8.74 127.20 10.46L127.20 10.46L127.20 16.70L126.15 16.70L126.15 10.45L126.15 10.45Q126.14 9.18 125.61 8.55L125.61 8.55L125.61 8.55Q125.08 7.93 123.91 7.93L123.91 7.93L123.91 7.93Q122.93 7.93 122.18 8.54L122.18 8.54L122.18 8.54Q121.43 9.15 121.07 10.19L121.07 10.19L121.07 16.70L120.02 16.70L120.02 7.19ZM131.49 4.75L132.55 4.75L132.55 7.19L134.52 7.19L134.52 8.05L132.55 8.05L132.55 14.39L132.55 14.39Q132.55 15.18 132.83 15.57L132.83 15.57L132.83 15.57Q133.12 15.95 133.79 15.95L133.79 15.95L133.79 15.95Q134.05 15.95 134.64 15.86L134.64 15.86L134.68 16.73L134.68 16.73Q134.27 16.88 133.56 16.88L133.56 16.88L133.56 16.88Q132.48 16.88 131.98 16.25L131.98 16.25L131.98 16.25Q131.49 15.62 131.49 14.40L131.49 14.40L131.49 8.05L129.74 8.05L129.74 7.19L131.49 7.19L131.49 4.75ZM138.87 7.19L138.87 16.70L137.82 16.70L137.82 7.19L138.87 7.19ZM137.63 4.44L137.63 4.44L137.63 4.44Q137.63 4.14 137.83 3.93L137.83 3.93L137.83 3.93Q138.02 3.73 138.35 3.73L138.35 3.73L138.35 3.73Q138.69 3.73 138.89 3.93L138.89 3.93L138.89 3.93Q139.08 4.14 139.08 4.44L139.08 4.44L139.08 4.44Q139.08 4.74 138.89 4.94L138.89 4.94L138.89 4.94Q138.69 5.14 138.35 5.14L138.35 5.14L138.35 5.14Q138.02 5.14 137.83 4.94L137.83 4.94L137.83 4.94Q137.63 4.74 137.63 4.44ZM143.31 4.75L144.36 4.75L144.36 7.19L146.33 7.19L146.33 8.05L144.36 8.05L144.36 14.39L144.36 14.39Q144.36 15.18 144.65 15.57L144.65 15.57L144.65 15.57Q144.94 15.95 145.60 15.95L145.60 15.95L145.60 15.95Q145.87 15.95 146.46 15.86L146.46 15.86L146.50 16.73L146.50 16.73Q146.09 16.88 145.38 16.88L145.38 16.88L145.38 16.88Q144.29 16.88 143.80 16.25L143.80 16.25L143.80 16.25Q143.31 15.62 143.31 14.40L143.31 14.40L143.31 8.05L141.56 8.05L141.56 7.19L143.31 7.19L143.31 4.75ZM149.57 7.19L152.53 15.19L155.30 7.19L156.44 7.19L152.38 18.32L152.17 18.81L152.17 18.81Q151.38 20.54 149.75 20.54L149.75 20.54L149.75 20.54Q149.37 20.54 148.94 20.42L148.94 20.42L148.93 19.55L149.48 19.60L149.48 19.60Q150.25 19.60 150.73 19.22L150.73 19.22L150.73 19.22Q151.21 18.83 151.54 17.90L151.54 17.90L152.01 16.62L148.42 7.19L149.57 7.19Z" transform="rotate(0 78.75000238418579 11.870000123977661)"></path><defs id="SvgjsDefs1012"></defs></svg></g></svg>